<svg width="38" height="46" viewBox="0 0 38 46" fill="none" xmlns="http://www.w3.org/2000/svg">
<path fill-rule="evenodd" clip-rule="evenodd" d="M21.0547 4.07637C24.0638 0.110278 28.2471 0.0909424 28.2471 0.0909424C28.2471 0.0909424 28.8694 3.81975 25.88 7.41177C22.6881 11.2473 19.06 10.6196 19.06 10.6196C19.06 10.6196 18.3788 7.60317 21.0547 4.07637ZM19.4427 13.2317C20.9908 13.2317 23.8639 11.1037 27.6036 11.1037C34.0408 11.1037 36.5732 15.6842 36.5732 15.6842C36.5732 15.6842 31.6203 18.2166 31.6203 24.3612C31.6203 31.2928 37.7903 33.6817 37.7903 33.6817C37.7903 33.6817 33.4772 45.8214 27.6515 45.8214C24.9758 45.8214 22.8955 44.0182 20.0762 44.0182C17.2031 44.0182 14.352 45.8887 12.4951 45.8887C7.17528 45.8888 0.454529 34.373 0.454529 25.1162C0.454529 16.0089 6.14321 11.2313 11.479 11.2313C14.9477 11.2313 17.6394 13.2317 19.4427 13.2317Z" fill="#919EAB"/>
</svg>
