<svg width="93" height="19" viewBox="0 0 93 19" fill="none" xmlns="http://www.w3.org/2000/svg">
<path fill-rule="evenodd" clip-rule="evenodd" d="M90.6428 0.354118C91.0076 0.354118 91.365 0.449421 91.7134 0.641039C92.0571 0.828904 92.3397 1.11517 92.5267 1.4648C92.7205 1.82117 92.8182 2.19376 92.8182 2.58156C92.8182 2.9648 92.7225 3.33384 92.5307 3.68717C92.3451 4.03506 92.066 4.32127 91.7263 4.51194C91.396 4.70404 91.0228 4.80534 90.6428 4.80596C90.2629 4.80525 89.8897 4.70396 89.5594 4.51194C89.2191 4.32135 88.9393 4.03516 88.753 3.68717C88.5648 3.35041 88.4654 2.96943 88.4645 2.58156C88.4645 2.19376 88.5622 1.82117 88.757 1.4648C88.9448 1.11494 89.2283 0.828676 89.5728 0.641039C89.9003 0.455211 90.2683 0.356549 90.6428 0.354118ZM90.6428 0.722652C90.337 0.722652 90.0396 0.803254 89.7502 0.963443C89.4608 1.12363 89.2342 1.35327 89.0707 1.65033C88.9071 1.94841 88.8258 2.25865 88.8258 2.58156C88.8258 2.90143 88.9061 3.20863 89.0667 3.50265C89.2263 3.79667 89.4508 4.0263 89.7393 4.19055C90.0145 4.35096 90.3256 4.43583 90.6423 4.43692C90.9591 4.43571 91.2701 4.35085 91.5454 4.19055C91.8286 4.03137 92.0615 3.79269 92.2165 3.50265C92.3761 3.20863 92.4554 2.90143 92.4554 2.58156C92.4554 2.25814 92.3751 1.9479 92.2125 1.65033C92.0499 1.35327 91.8234 1.12363 91.533 0.963443C91.2426 0.803254 90.9462 0.722652 90.6428 0.722652ZM89.6883 3.81137V1.41664H90.4917C90.7677 1.41664 90.967 1.43793 91.0899 1.48203C91.2128 1.52613 91.3105 1.60369 91.3843 1.7137C91.4567 1.82471 91.4939 1.94131 91.4939 2.065C91.4939 2.2404 91.4329 2.39247 91.311 2.52174C91.188 2.65202 91.0265 2.72401 90.8242 2.74073C90.9075 2.77571 90.9744 2.81779 91.0235 2.86747C91.1172 2.96226 91.2327 3.12042 91.3699 3.34297L91.6554 3.81137H91.1935L90.9853 3.43371C90.8218 3.13766 90.6909 2.95162 90.5903 2.8771C90.5214 2.82184 90.4198 2.79447 90.2875 2.79447H90.0659V3.81137H89.6883ZM90.0659 2.46395H90.5249C90.7435 2.46395 90.8926 2.42948 90.9729 2.36307C91.0516 2.29879 91.096 2.20036 91.0929 2.09744C91.0931 2.02948 91.0729 1.96309 91.0349 1.90734C90.9949 1.85061 90.9393 1.80723 90.8753 1.78264C90.8064 1.75425 90.6805 1.74107 90.4946 1.74107H90.0659V2.46395ZM48.6785 0.207615H48.7508V5.32556H43.6954V0.207615H48.6785ZM26.6763 11.0305L38.3688 11.7722C38.855 11.7722 39.2525 12.1792 39.2525 12.676C39.2525 13.1728 38.855 13.5799 38.3688 13.5799H21.705V6.91782C22.217 8.97493 23.9795 10.6574 26.6763 11.0305ZM21.705 18.7267H38.741C41.2241 18.7267 43.3092 16.8942 43.7687 14.4863C44.1741 16.8861 46.2266 18.7267 48.679 18.7267H59.5636C61.9952 18.7267 64.0347 16.916 64.4629 14.5446V18.7267H81.9147C84.7319 18.7267 87.0366 16.3695 87.0366 13.4871V12.7455C87.0366 9.86409 84.7319 7.50687 81.9147 7.50687L80.9572 7.46378C75.5275 7.21944 70.1142 6.93962 64.6914 6.6532C65.1137 8.82945 66.9094 10.6412 69.7211 11.0305L81.542 11.7722C82.0297 11.7736 82.4248 12.1772 82.4267 12.676C82.4248 13.1748 82.0297 13.5785 81.542 13.5799H64.5462V6.6456L59.4912 6.37896V12.31C59.489 13.1426 58.8297 13.8169 58.0157 13.8191H50.2268C49.4127 13.8172 48.7532 13.1427 48.7513 12.31V5.81221L43.6954 5.54557V11.4249C43.1174 9.20102 41.1101 7.59761 38.741 7.59761L16.4756 6.10876V18.7272H21.705V18.7267ZM42.8919 5.32809V0.181763H26.6763C24.2823 0.181763 22.2592 1.88352 21.705 4.16317V0.207109H12.0258L8.72734 5.32556H21.5559L42.8919 5.32809ZM14.3404 5.98203L6.34532 18.7267H0.0909119L8.52562 5.63884L14.3404 5.98203ZM87.0361 5.32809V0.181763H69.7206C66.9347 0.181763 64.6503 2.48778 64.5997 5.32556L87.0361 5.32809ZM59.4907 5.32556V0.207615H64.5457V5.32556H59.4907Z" fill="#919EAB"/>
</svg>
