<svg width="20" height="20" viewBox="0 0 20 20" fill="none" xmlns="http://www.w3.org/2000/svg">
<path fill-rule="evenodd" clip-rule="evenodd" d="M17.476 1.6001H2.52398C2.01366 1.6001 1.59998 2.01379 1.59998 2.5241V17.4761C1.59998 17.7212 1.69733 17.9562 1.87061 18.1295C2.04389 18.3027 2.27892 18.4001 2.52398 18.4001H10.5712V11.8901H8.38718V9.3701H10.5712V7.4801C10.4796 6.5819 10.7897 5.68915 11.4183 5.04108C12.0469 4.39302 12.9298 4.05591 13.8304 4.1201C14.4842 4.11607 15.1377 4.14973 15.7876 4.2209V6.4889H14.452C13.3936 6.4889 13.192 6.9929 13.192 7.7237V9.3449H15.712L15.3844 11.8649H13.192V18.4001H17.476C17.721 18.4001 17.9561 18.3027 18.1293 18.1295C18.3026 17.9562 18.4 17.7212 18.4 17.4761V2.5241C18.4 2.27904 18.3026 2.04401 18.1293 1.87073C17.9561 1.69745 17.721 1.6001 17.476 1.6001Z" fill="#919EAB"/>
</svg>
