<svg width="22" height="22" viewBox="0 0 22 22" fill="none" xmlns="http://www.w3.org/2000/svg">
<path fill-rule="evenodd" clip-rule="evenodd" d="M11 1.98792C6.46816 1.9881 2.60526 5.27479 1.87932 9.74811C1.15338 14.2214 3.77866 18.561 8.07787 19.9944C8.53987 20.0752 8.71312 19.798 8.71312 19.5555C8.71312 19.336 8.70156 18.6084 8.70156 17.8345C6.38 18.2619 5.7794 17.2686 5.5946 16.7488C5.38954 16.2433 5.06448 15.7954 4.6475 15.4437C4.3241 15.2704 3.8621 14.8431 4.63594 14.8315C5.23562 14.8966 5.76587 15.2501 6.0566 15.7786C6.31184 16.2371 6.73906 16.5752 7.24397 16.7182C7.74887 16.8613 8.28994 16.7974 8.74773 16.5409C8.78773 16.0712 8.99708 15.632 9.3368 15.3051C7.2809 15.0741 5.1326 14.2771 5.1326 10.7428C5.11961 9.82452 5.45848 8.93603 6.0797 8.25959C5.79722 7.46146 5.83027 6.58557 6.1721 5.81099C6.1721 5.81099 6.94592 5.56843 8.7131 6.75809C10.225 6.34227 11.8212 6.34227 13.3331 6.75809C15.1002 5.55689 15.8741 5.81099 15.8741 5.81099C16.216 6.58556 16.249 7.46147 15.9665 8.25959C16.5896 8.93487 16.9287 9.82414 16.9136 10.7428C16.9136 14.2887 14.7537 15.0741 12.6978 15.3051C13.144 15.7573 13.3717 16.3812 13.3215 17.0145C13.3215 18.2504 13.31 19.2436 13.31 19.5555C13.31 19.7981 13.4832 20.0868 13.9452 19.9944C18.2365 18.5495 20.8498 14.2091 20.1188 9.74049C19.3879 5.27187 15.528 1.99027 11 1.98792Z" fill="#919EAB"/>
</svg>
