<svg width="20" height="20" viewBox="0 0 20 20" fill="none" xmlns="http://www.w3.org/2000/svg">
<path fill-rule="evenodd" clip-rule="evenodd" d="M14.4856 4.5065C14.0779 4.5065 13.7104 4.75209 13.5543 5.12875C13.3983 5.50542 13.4846 5.93898 13.7728 6.22726C14.0611 6.51555 14.4947 6.60179 14.8714 6.44577C15.248 6.28975 15.4936 5.9222 15.4936 5.5145C15.4936 4.95779 15.0423 4.5065 14.4856 4.5065ZM18.3496 6.5393C18.3333 5.84235 18.2027 5.1528 17.9632 4.4981C17.7496 3.93793 17.4172 3.43069 16.9888 3.0113C16.5729 2.58074 16.0644 2.25041 15.502 2.0453C14.849 1.79847 14.1587 1.66495 13.4608 1.6505C12.5704 1.6001 12.2848 1.6001 10 1.6001C7.71521 1.6001 7.42961 1.6001 6.53921 1.6505C5.84129 1.66495 5.15097 1.79847 4.49801 2.0453C3.93661 2.25248 3.42863 2.58253 3.01121 3.0113C2.58064 3.42725 2.25031 3.93567 2.04521 4.4981C1.79838 5.15107 1.66486 5.84139 1.65041 6.5393C1.60001 7.4297 1.60001 7.7153 1.60001 10.0001C1.60001 12.2849 1.60001 12.5705 1.65041 13.4609C1.66486 14.1588 1.79838 14.8491 2.04521 15.5021C2.25031 16.0645 2.58064 16.5729 3.01121 16.9889C3.42863 17.4177 3.93661 17.7477 4.49801 17.9549C5.15097 18.2017 5.84129 18.3352 6.53921 18.3497C7.42961 18.4001 7.71521 18.4001 10 18.4001C12.2848 18.4001 12.5704 18.4001 13.4608 18.3497C14.1587 18.3352 14.849 18.2017 15.502 17.9549C16.0644 17.7498 16.5729 17.4195 16.9888 16.9889C17.4191 16.5711 17.7518 16.0634 17.9632 15.5021C18.2027 14.8474 18.3333 14.1578 18.3496 13.4609C18.3496 12.5705 18.4 12.2849 18.4 10.0001C18.4 7.7153 18.4 7.4297 18.3496 6.5393ZM16.8376 13.3601C16.8315 13.8933 16.7349 14.4216 16.552 14.9225C16.4179 15.2881 16.2025 15.6184 15.922 15.8885C15.6495 16.1661 15.3199 16.3811 14.956 16.5185C14.4551 16.7014 13.9268 16.798 13.3936 16.8041C12.5536 16.8461 12.2428 16.8545 10.0336 16.8545C7.82441 16.8545 7.51361 16.8545 6.67361 16.8041C6.11995 16.8145 5.56867 16.7292 5.04401 16.5521C4.69606 16.4077 4.38155 16.1932 4.12001 15.9221C3.8412 15.6522 3.62847 15.3217 3.49841 14.9561C3.29333 14.448 3.17958 13.9077 3.16241 13.3601C3.16241 12.5201 3.11201 12.2093 3.11201 10.0001C3.11201 7.7909 3.11201 7.4801 3.16241 6.6401C3.16617 6.09498 3.26568 5.55477 3.45641 5.0441C3.60429 4.68954 3.83127 4.37349 4.12001 4.1201C4.37521 3.83128 4.69061 3.6019 5.04401 3.4481C5.55603 3.26333 6.09568 3.16676 6.64001 3.1625C7.48001 3.1625 7.79081 3.1121 10 3.1121C12.2092 3.1121 12.52 3.1121 13.36 3.1625C13.8932 3.16861 14.4215 3.26518 14.9224 3.4481C15.3041 3.58977 15.6467 3.82009 15.922 4.1201C16.1973 4.37813 16.4124 4.69359 16.552 5.0441C16.7387 5.5556 16.8353 6.09559 16.8376 6.6401C16.8796 7.4801 16.888 7.7909 16.888 10.0001C16.888 12.2093 16.8796 12.5201 16.8376 13.3601ZM10 5.6909C7.6212 5.69554 5.69612 7.62688 5.69921 10.0057C5.7023 12.3845 7.63239 14.3108 10.0112 14.3093C12.39 14.3077 14.3176 12.3789 14.3176 10.0001C14.3199 8.85508 13.8654 7.75644 13.055 6.94758C12.2445 6.13872 11.145 5.68642 10 5.6909ZM10 12.7973C8.45516 12.7973 7.20281 11.5449 7.20281 10.0001C7.20281 8.45525 8.45516 7.2029 10 7.2029C11.5449 7.2029 12.7972 8.45525 12.7972 10.0001C12.7972 10.742 12.5025 11.4534 11.9779 11.978C11.4533 12.5026 10.7419 12.7973 10 12.7973Z" fill="#919EAB"/>
</svg>
