<svg width="100" height="16" viewBox="0 0 100 16" fill="none" xmlns="http://www.w3.org/2000/svg">
<path fill-rule="evenodd" clip-rule="evenodd" d="M54.7422 7.4044C54.7422 7.4044 53.7729 6.80502 53.1735 6.5731C53.1735 6.5731 51.3181 5.71321 50.9501 5.30409C50.9501 5.30409 50.2269 4.62264 50.6504 3.83113C50.6504 3.83113 50.8276 3.31321 51.5917 3.31321C51.5917 3.31321 52.5865 3.36792 52.5865 4.18554V5.33891H56.1517L56.1455 3.64025C56.1455 3.64025 56.4197 0.858491 51.9461 0.736004C51.9461 0.736004 48.4276 0.504709 47.4184 2.39984C47.4184 2.39984 47.0224 2.82264 47.0224 4.29497V5.3588C47.0224 5.3588 46.982 6.58616 47.6087 7.37704C47.6087 7.37704 47.9631 7.89559 48.8361 8.46761C48.8361 8.46761 50.6087 9.42202 51.6725 9.96854C51.6725 9.96854 52.7463 10.5816 52.6052 11.5571C52.6052 11.5571 52.5175 12.5588 51.4804 12.5178C51.4804 12.5178 50.5322 12.4755 50.5322 11.4931V10.3404H46.7333V12.0148C46.7333 12.0148 46.6269 15.2168 51.5084 15.2168C51.5084 15.2168 56.1728 15.3113 56.3905 11.9308V10.5673C56.3898 10.5673 56.5552 8.49559 54.7422 7.4044ZM36.4897 1.13455L35.296 8.61559H35.0168L33.8765 1.2017H27.9212L27.6228 14.7493H31.1488L31.1911 4.54181H31.4684L33.3374 14.7474H37.0468L38.8928 4.54554H39.1384L39.2236 14.7493H42.7683L42.3865 1.13455H36.4897ZM15.5003 1.19114L13.1544 14.7337H16.9503L18.3399 4.23342H18.652L20.041 14.7337H23.8363L21.491 1.19114H15.5003ZM95.1492 7.21787V9.21559H96.1229V11.36C96.1229 12.4083 95.2269 12.4276 95.2269 12.4276C94.1376 12.4276 94.1787 11.4315 94.1787 11.4315V4.01393C94.1787 3.24979 95.1455 3.20875 95.1455 3.20875C96.0732 3.20875 96.0794 4.12025 96.0794 4.12025V5.24813H99.6533C99.7702 3.04647 99.3312 2.51362 99.3312 2.51362C98.4446 0.522741 95.0908 0.63155 95.0908 0.63155C89.937 0.63155 90.509 4.58595 90.509 4.58595V11.758C90.6197 15.4668 95.6982 15.09 95.784 15.0869C98.0429 14.8369 98.725 14.1188 98.725 14.1188C99.353 13.6525 99.5146 13.0065 99.5146 13.0065C99.6943 12.6303 99.7391 11.4315 99.7391 11.4315V7.21787H95.1492ZM83.3028 9.42201H83.1474L79.5206 1.13828H75.1814V14.7505H78.713L78.5016 6.46802H78.6595L82.4168 14.7505H86.6243V1.13704H83.0479L83.3028 9.42201ZM66.5606 11.3588C66.5606 11.3588 66.6116 12.4761 65.5758 12.4761C65.5758 12.4761 64.4864 12.5346 64.4864 11.3868L64.4752 1.14637H60.6017V11.3053C60.6017 11.3053 60.2044 15.1503 65.6305 15.1503C65.6305 15.1503 70.3459 15.2063 70.3459 11.4819V1.14699H66.5606V11.3588ZM8.11565 7.4044C8.11565 7.4044 7.14756 6.80502 6.54756 6.57373C6.54756 6.57373 4.69347 5.71445 4.32539 5.30471C4.32539 5.30471 3.60228 4.62202 4.02632 3.83238C4.02632 3.83238 4.2029 3.31445 4.96642 3.31445C4.96642 3.31445 5.96186 3.36854 5.96186 4.18616V5.33953H9.52829L9.52145 3.64025C9.52145 3.64025 9.79378 0.858492 5.32207 0.736626C5.32207 0.736626 4.98508 0.714865 4.49078 0.739735C4.49078 0.739735 1.78176 0.885227 0.813055 2.37124C0.807459 2.38243 0.799376 2.39051 0.79378 2.40046C0.79378 2.40046 0.39834 2.82264 0.39834 4.29559V5.35943C0.39834 5.35943 0.357304 6.58678 0.984661 7.37766C0.984661 7.37766 1.33907 7.89621 2.21202 8.46823C2.21202 8.46823 3.98404 9.42264 5.04787 9.96917C5.04787 9.96917 6.1229 10.581 5.98052 11.5578C5.98052 11.5578 5.89285 12.5594 4.85637 12.5184C4.85637 12.5184 3.90818 12.4761 3.90818 11.4937V10.3404H0.108599V12.016C0.108599 12.016 0.00227755 15.2181 4.88373 15.2181C4.88373 15.2181 9.54694 15.3126 9.76642 11.9321V10.5698C9.76642 10.5685 9.92932 8.49559 8.11565 7.4044Z" fill="#919EAB"/>
</svg>
