<svg width="93" height="17" viewBox="0 0 93 17" fill="none" xmlns="http://www.w3.org/2000/svg">
<path fill-rule="evenodd" clip-rule="evenodd" d="M83.3023 6.81144L86.1981 3.68928C86.366 3.46007 86.4494 3.29957 86.4494 3.16215C86.4494 2.93294 86.2542 2.84115 85.6403 2.84115H84.9096V0.870052H92.8182V2.84115H91.7791C90.579 2.84115 90.356 3.02422 88.6816 5.15581L84.1005 10.1513V13.1997C84.1005 13.9796 84.4904 14.254 85.607 14.254H87.3366V16.1559H76.2595V14.254H77.9891C79.1047 14.254 79.4956 13.9796 79.4956 13.1997V10.1513L74.0999 4.12412C73.2083 3.07036 73.3315 2.84115 70.8489 2.84115V0.870052H80.8665V2.84115H80.1532C79.4275 2.84115 79.1201 2.97858 79.1201 3.25343C79.1201 3.48314 79.3431 3.6662 79.4827 3.84927L82.2125 6.85357C82.5369 7.19412 82.9328 7.23826 83.3023 6.81144ZM16.0898 0.869551H18.5062V6.36957H16.2745C16.0768 5.27017 15.3954 4.84234 14.774 4.26556C13.6529 3.22534 11.225 2.35916 9.18308 2.35916C6.54757 2.35916 4.32333 3.18472 4.32333 4.39847C4.32333 7.7679 19.3958 5.0866 19.3958 11.4573C19.3958 14.7801 16.1672 16.6363 10.3692 16.6363C8.36203 16.6363 5.32468 16.0074 3.53257 15.0464C2.9708 14.7189 2.73238 15.3564 2.62708 16.1553H0.149519V10.4718H2.39065C2.88487 11.9157 3.56585 12.2132 4.1922 12.7864C5.27899 13.795 7.86582 14.5288 10.2381 14.5052C13.8149 14.4696 15.0447 13.6802 15.0447 12.5341C15.0447 11.3886 13.8283 11.1132 9.90877 10.4948L6.58085 9.94463C2.82527 9.37136 0.0909081 8.52374 0.0909081 5.49888C0.0909081 2.35916 3.54996 0.388062 9.01917 0.388062C11.3239 0.388062 13.2521 0.699024 15.1028 1.75529C15.6154 2.09183 16.0962 2.13196 16.0898 0.869551ZM63.2489 10.078L63.2966 3.96513C63.2966 3.16315 62.8833 2.8883 61.7026 2.8883H60.3153V0.986412H69.1418V2.8883H67.9914C66.8097 2.8883 66.3965 3.16365 66.3965 3.96513V16.2717L62.9419 16.2441L51.7541 5.54652V13.3156C51.7541 14.095 52.1674 14.3924 53.3481 14.3924H54.8839V16.2717H45.7172V14.3924H47.2361C48.4168 14.3924 48.83 14.0945 48.83 13.3156V3.96513C48.83 3.16315 48.4168 2.8883 47.2361 2.8883H45.7172V0.986412H53.6426L63.2489 10.078ZM33.6835 0.272705C26.6492 0.272705 22.2459 3.41292 22.2459 8.45402C22.2459 13.4048 26.5881 16.521 33.469 16.521C40.7775 16.521 45.0288 13.4505 45.0288 8.20224C45.0293 3.48163 40.4417 0.272705 33.6835 0.272705ZM33.5236 14.5278C29.6299 14.5278 27.3918 12.2588 27.3918 8.33967C27.3918 4.51283 29.7273 2.2438 33.7183 2.2438C37.5469 2.2438 39.785 4.55897 39.785 8.50067C39.785 12.3506 37.5141 14.5278 33.5236 14.5278Z" fill="#919EAB"/>
</svg>
