<svg width="95" height="18" viewBox="0 0 95 18" fill="none" xmlns="http://www.w3.org/2000/svg">
<path fill-rule="evenodd" clip-rule="evenodd" d="M30.2637 0.275246C28.2879 0.275246 27.3581 0.480239 26.3275 0.875682L26.144 0.942452L27.2615 2.92728L27.3949 2.8772C28.1549 2.566 28.9943 2.46038 30.564 2.46038H32.2319C34.6711 2.46038 36.0682 3.67473 36.0682 5.81281V12.3844C36.0682 14.521 34.6711 15.737 32.2319 15.737H29.5132C27.0132 15.737 25.7936 14.735 25.7936 12.6514C25.7936 10.5842 27.0131 9.58245 29.5132 9.58245H33.2993V7.38072H29.3964C25.6858 7.38072 23.5587 9.31078 23.5587 12.6681C23.5587 15.9142 25.7959 17.9387 29.3964 17.9387H32.3319C36.4295 17.9387 38.3031 15.2038 38.3031 12.6681V5.52943C38.3031 2.99405 36.4295 0.275343 32.3319 0.275343H30.2637V0.275246ZM46.7763 0.275244C42.6783 0.275244 40.805 2.99405 40.805 5.52923V12.668C40.805 15.2038 42.6782 17.9386 46.7762 17.9386H49.3116C51.399 17.9386 52.767 17.6337 53.865 16.9211L53.9983 16.8211L52.7308 14.9697L52.5973 15.053C51.778 15.5494 50.7413 15.7369 49.028 15.7369H46.8762C44.4024 15.7369 43.0399 14.5524 43.0399 12.3843V5.81281C43.0399 3.64358 44.403 2.46018 46.8762 2.46018H49.0279C50.739 2.46018 51.7748 2.66381 52.5972 3.16068L52.7307 3.24404L53.9982 1.37596L53.8649 1.2926C52.7669 0.580587 51.4009 0.275146 49.3115 0.275146H46.7763V0.275244ZM61.404 0.275246C57.2927 0.275246 55.4162 2.99405 55.4162 5.52923V12.668C55.4162 15.2038 57.2892 17.9386 61.3874 17.9386H64.3229C68.4214 17.9386 70.2774 15.2037 70.2774 12.668V5.52933C70.2774 2.99444 68.4035 0.275246 64.2895 0.275246H61.404ZM78.7337 0.308628C75.1977 0.308628 72.9127 2.31581 72.9127 5.41248V17.8553H75.1477V5.69625C75.1477 3.5446 76.3499 2.49376 78.8339 2.49376C81.1898 2.49376 82.4866 3.56656 82.4866 5.49604V17.8553H84.7216V5.49614C84.7216 3.56656 86.0184 2.49376 88.3744 2.49376C90.8594 2.49376 92.0772 3.5447 92.0772 5.69616V17.8553H94.2956V5.41248C94.2956 2.31571 92.0089 0.308628 88.4746 0.308628C86.1154 0.308628 84.6909 0.891884 83.6041 2.29346C82.5189 0.891884 81.0901 0.308628 78.7337 0.308628ZM0.0909119 0.391994V12.8347C0.0909119 15.9309 2.37601 17.9386 5.91205 17.9386C8.2685 17.9386 9.69731 17.357 10.7824 15.9538C11.8679 17.357 13.2958 17.9386 15.6529 17.9386C19.1873 17.9386 21.4739 15.931 21.4739 12.8347V0.391994H19.2555V12.5512C19.2555 14.7017 18.0367 15.737 15.5527 15.737C13.1972 15.737 11.8999 14.6793 11.8999 12.7514V0.391994H9.68149V12.7513C9.68149 14.6786 8.38467 15.7369 6.0287 15.7369C3.54476 15.7369 2.32593 14.7016 2.32593 12.5511V0.392092H0.0909119V0.391994ZM61.4874 2.46028H64.206C66.6453 2.46028 68.0423 3.67462 68.0423 5.81281V12.3844C68.0423 14.521 66.6453 15.737 64.206 15.737H61.4874C59.0125 15.737 57.6511 14.5525 57.6511 12.3844V5.8129C57.6511 3.67463 59.0488 2.46028 61.4874 2.46028Z" fill="#919EAB"/>
</svg>
