<svg width="48" height="32" viewBox="0 0 48 32" fill="none" xmlns="http://www.w3.org/2000/svg">
<path fill-rule="evenodd" clip-rule="evenodd" d="M34.5983 9.68755V31.4684L34.5985 31.4672C34.5985 31.6592 34.4411 31.8153 34.2482 31.8153H27.6202C27.428 31.8153 27.2699 31.6572 27.2699 31.465V12.1791C27.2699 9.46197 25.0667 7.26033 22.3504 7.26033H7.88422C7.69089 7.2613 7.53437 7.41772 7.53328 7.61105V31.4661C7.53218 31.6591 7.37579 31.8152 7.18278 31.816H0.454936C0.362214 31.8164 0.273101 31.7801 0.207202 31.7148C0.141304 31.6496 0.104017 31.5609 0.103546 31.4681V1.07494C0.103546 0.882762 0.260536 0.72644 0.454936 0.72644H25.6392C30.5876 0.72644 34.5983 4.7387 34.5983 9.68755ZM21.0137 31.4668V31.4661V13.185C21.0137 12.9932 20.8558 12.8351 20.6638 12.8351H13.9378C13.7454 12.8351 13.5868 12.9937 13.5866 13.1861V31.4661C13.5867 31.5592 13.6238 31.6485 13.6898 31.7142C13.7557 31.7799 13.8451 31.8167 13.9382 31.8164H20.6645C20.8562 31.8164 21.0137 31.6583 21.0137 31.4668ZM47.5563 31.8162C47.7507 31.8162 47.9077 31.6599 47.9077 31.4661V1.07805V1.07783C47.9077 0.88521 47.7494 0.726662 47.5567 0.726662H40.8322C40.6381 0.726662 40.4793 0.883651 40.4793 1.07805V31.4661C40.4803 31.6602 40.6382 31.8168 40.8322 31.8162H47.5563Z" fill="#919EAB"/>
</svg>
